<svg xmlns="http://www.w3.org/2000/svg" width="16" height="44" viewBox="0 0 16 44">
  <metadata><?xpacket begin="﻿" id="W5M0MpCehiHzreSzNTczkc9d"?>
<x:xmpmeta xmlns:x="adobe:ns:meta/" x:xmptk="Adobe XMP Core 5.6-c142 79.160924, 2017/07/13-01:06:39        ">
   <rdf:RDF xmlns:rdf="http://www.w3.org/1999/02/22-rdf-syntax-ns#">
      <rdf:Description rdf:about=""/>
   </rdf:RDF>
</x:xmpmeta>
                                                                                                    
                                                                                                    
                                                                                                    
                                                                                                    
                                                                                                    
                                                                                                    
                                                                                                    
                                                                                                    
                                                                                                    
                                                                                                    
                                                                                                    
                                                                                                    
                                                                                                    
                                                                                                    
                                                                                                    
                                                                                                    
                                                                                                    
                                                                                                    
                                                                                                    
                                                                                                    
                           
<?xpacket end="w"?></metadata>
<defs>
    <style>
      .cls-1 {
        fill: #5da8ef;
        fill-rule: evenodd;
      }
    </style>
  </defs>
  <path id="logo" class="cls-1" d="M720,5006c-2.321,0-8,7.21-8,20.58a51.26,51.26,0,0,0,5.178,23.05l0.206,0.37h5.232l0.206-.37A51.275,51.275,0,0,0,728,5026.58C728,5013.21,722.321,5006,720,5006Zm1.733,42.58h-1.006v-4.97h-1.454v4.97h-1.006a49.037,49.037,0,0,1-4.005-12.84,15.947,15.947,0,0,0,5.366,4.93,7.183,7.183,0,0,1,3.645,4.29A38.1,38.1,0,0,1,721.733,5048.58Zm2.241-5.66a9.7,9.7,0,0,0-3.6-3.47c-5.744-3.33-6.651-8.18-6.778-9.15-0.061-.84-0.1-1.7-0.117-2.58a15.23,15.23,0,0,0,6.161,5.86c4.673,2.61,5.459,5.19,5.473,5.23C724.755,5040.33,724.364,5041.71,723.974,5042.92Zm-3.613-10.58c-6.857-3.82-6.773-9.31-6.767-9.31h0c0.715-9.22,4.024-13.7,5.68-15.15v22.25h1.454v-22.25c1.862,1.63,5.818,7.52,5.818,18.7a53.24,53.24,0,0,1-.975,10.1A15.687,15.687,0,0,0,720.361,5032.34Z" transform="translate(-712 -5006)"/>
</svg>
